<svg width="170" height="65" viewBox="0 0 170 65" fill="none" xmlns="http://www.w3.org/2000/svg">
<g clip-path="url(#clip0)">
<path d="M126.659 48.6761H127.253C129.578 48.6761 131.903 48.7032 134.201 48.6761C136.58 48.649 138.932 48.3239 141.176 47.5381C145.879 45.8853 149.151 42.7693 150.583 37.9191C151.584 34.5322 151.584 31.0639 150.746 27.6499C149.907 24.2629 148.069 21.4992 145.204 19.4941C142.365 17.489 139.148 16.5406 135.715 16.3781C132.795 16.2426 129.876 16.2968 126.956 16.2697C126.848 16.2697 126.767 16.2968 126.659 16.3239V48.6761ZM108.979 0.5H134.742C134.877 0.527096 135.012 0.581287 135.12 0.581287C138.932 0.662574 142.69 1.1503 146.393 2.17993C151.881 3.67019 156.801 6.19009 160.856 10.2274C165.614 14.942 168.236 20.6863 169.128 27.2976C169.236 28.1105 169.345 28.9505 169.426 29.7633V34.6406C169.399 34.776 169.345 34.9115 169.345 35.0199C169.182 36.2121 169.101 37.4314 168.885 38.6236C166.939 48.7574 161.262 56.0461 151.989 60.5169C146.177 63.3078 139.986 64.3374 133.606 64.3645C125.604 64.4187 117.575 64.3645 109.574 64.3645H108.952V48.8387H79.0527V39.5178H108.898V25.4551H79.0798V16.08H108.952V15.3755C108.952 10.6609 108.952 5.94623 108.952 1.23158C108.925 0.987722 108.979 0.743861 108.979 0.5Z" fill="#4D4D4D"/>
<path d="M48.9646 38.8946C49.0457 38.6778 49.1268 38.5152 49.1809 38.3527C50.857 33.7193 50.6137 29.1943 48.3969 24.8048C45.207 18.4644 37.9079 14.9149 31.0955 16.3781C22.4448 18.2477 16.93 26.4306 18.3898 35.2096C19.8766 44.1241 28.0407 50.0038 36.9347 48.5677C37.8539 48.4052 38.746 48.1342 39.6651 47.8903C39.6922 47.8091 39.7192 47.7549 39.7192 47.6736C37.2862 45.235 34.8532 42.8235 32.5012 40.439C35.4749 37.4585 38.4756 34.4509 41.5034 31.4162C43.9634 33.8819 46.4505 36.3747 48.9646 38.8946ZM0.574707 34.6406V30.2782C0.601741 30.1427 0.655807 30.0343 0.682841 29.8988C0.845042 28.7608 0.953176 27.5957 1.16944 26.4577C2.49408 19.9276 5.62997 14.4272 10.4419 9.8751C16.173 4.48306 22.9855 1.50254 30.7711 0.68967C31.3658 0.635478 31.9606 0.554191 32.5553 0.5H35.9886C36.1237 0.527096 36.2319 0.581287 36.367 0.581287C41.4764 0.87934 46.3424 2.15284 50.8029 4.67273C60.6972 10.2273 66.6445 18.5186 67.7529 29.9801C68.3206 35.7515 67.1582 41.279 64.4819 46.4272C63.5897 48.1342 62.4814 49.7329 61.4 51.5483C65.5902 55.7481 69.8885 60.0563 74.2139 64.3916C74.0517 64.3916 73.9165 64.3916 73.7814 64.3916C69.8885 64.3916 65.9957 64.4187 62.1029 64.4187C61.9137 64.4187 61.6974 64.4729 61.5082 64.5H56.3177C54.8309 62.9826 53.3441 61.4653 51.8302 59.975C51.7491 59.8937 51.4517 59.8937 51.3166 59.975C44.3689 63.7684 36.9618 65.1232 29.1221 63.9852C21.0661 62.8201 14.2266 59.2976 8.71179 53.2553C4.41346 48.5406 1.76418 43.0131 0.872075 36.6727C0.763941 35.9953 0.655807 35.318 0.574707 34.6406Z" fill="#4D4D4D"/>
</g>
<defs>
<clipPath id="clip0">
<rect width="168.851" height="64" fill="white" transform="translate(0.574707 0.5)"/>
</clipPath>
</defs>
</svg>
